<?xml version="1.0" encoding="utf-8"?>
<!-- Generator: Adobe Illustrator 21.1.0, SVG Export Plug-In . SVG Version: 6.00 Build 0)  -->
<svg version="1.1" id="Layer_1" xmlns="http://www.w3.org/2000/svg" xmlns:xlink="http://www.w3.org/1999/xlink" x="0px" y="0px"
	 viewBox="0 0 226.8 42.5" style="enable-background:new 0 0 226.8 42.5;" xml:space="preserve">
<g id="Logo">
	<rect x="33.4" y="8.7" width="8.2" height="25.1"/>
	<polygon points="8.7,25.9 8.7,33.8 16.9,33.8 	"/>
	<polygon points="28.5,15.8 28.5,8.6 21,8.6 	"/>
	<path d="M15.2,11.9c0.4-2.3,3.7-3.3,3.7-3.3H17c-3.8,0-8.7,2.2-8.7,7c0,4.4,3.7,6.6,8.2,8.3c3,1.1,6.2,2.2,6.4,5.4
		c0.1,3.2-3.9,4.4-3.9,4.4h1.9c6,0,9.7-2.9,9.7-7.2c0-3.5-1.3-6.4-9.8-9.8C17.2,15.4,14.8,14.6,15.2,11.9z"/>
	<path d="M118,8.2c-4.8,0.3-7.7,3.9-7.7,11.2l0,0c1.7-3.9,6.4-3.9,8.3-1.7l4-8.4C121.5,8.4,119.4,8.1,118,8.2"/>
	<rect x="100.1" y="8.7" width="8.2" height="25.1"/>
	<path d="M76.8,17.2c0-5.8-2.6-9.1-7.4-9.1c-4.6,0-7.7,3-7.9,8.8l0,0c0.9-1.5,2.4-2.4,4.1-2.4c2,0,3,1.3,3,3.9v15.3h8.2L76.8,17.2z"
		/>
	<path d="M59.2,17.2c0-5.8-2.6-9.1-7.4-9.1c-4.6,0-7.7,3-7.9,8.8l0,0c0.9-1.5,2.4-2.4,4.1-2.4c2,0,3,1.3,3,3.9v15.3h8.2L59.2,17.2z"
		/>
	<path d="M136.8,27.8c-2.3,0-3.7-1.6-3.7-4.5v-8.6h4.7l2.9-6.1h-7.6V4.4H125v19.3c0,6.6,3.1,10.5,8.4,10.5c4.7,0,7.6-3.6,7.6-9l0,0
		C140.1,26.9,138.5,27.8,136.8,27.8z"/>
	<path d="M93.8,28.3c-2.9,0-5.3-2.9-5.3-7.1s2.4-7.1,5.3-7.1c1.8,0,3.3,1,4,2.4c0-4.6-3-8.4-7.6-8.4c-4.9,0-10.1,4.6-10.1,13
		s5.2,13,10.1,13c4.6,0,7.6-3.8,7.6-8.4C97,27.3,95.5,28.3,93.8,28.3z"/>
	<path d="M160.2,25.3c-0.9,1.6-2.4,2.5-4.1,2.5c-2.3,0-3.7-1.7-3.7-4.5V8.7h-8.2v15c0,6.6,3.1,10.5,8.4,10.5
		C157.4,34.2,160.2,30.6,160.2,25.3L160.2,25.3z"/>
	<rect x="162.5" y="8.7" width="8.2" height="25.1"/>
	<path d="M188.3,17.2c0-5.8-2.6-9.1-7.4-9.1c-4.6,0-7.7,3-7.9,8.8l0,0c0.9-1.5,2.4-2.4,4.1-2.4c2,0,3,1.3,3,3.9v15.3h8.2L188.3,17.2
		z"/>
	<path d="M205.9,17.2c0-5.8-2.6-9.1-7.4-9.1c-4.6,0-7.7,3-7.9,8.8l0,0c0.9-1.5,2.4-2.4,4.1-2.4c2,0,3,1.3,3,3.9v15.3h8.2L205.9,17.2
		z"/>
	<path d="M209.6,29.7c0-2.5,2-4.5,4.5-4.5s4.5,2,4.5,4.5s-2,4.5-4.5,4.5S209.6,32.2,209.6,29.7"/>
	<rect x="209.9" y="4.4" width="8.2" height="18.5"/>
</g>
</svg>
